<svg version="1.1" id="Layer_1" xmlns="http://www.w3.org/2000/svg" xmlns:xlink="http://www.w3.org/1999/xlink" x="0px" y="0px"
	 width="100%" viewBox="0 0 368 320" enable-background="new 0 0 368 320" xml:space="preserve">
<path fill="#ffffff" opacity="1.000000" stroke="none" 
	d="
M161.151245,183.923782 
	C146.563171,171.432877 140.726913,156.110123 145.728806,137.749725 
	C150.623535,119.782700 163.124313,109.531212 181.266983,106.132042 
	C202.798431,102.097946 226.371353,118.672646 230.259399,140.446289 
	C235.181839,168.012695 215.926346,192.035004 188.012924,192.781540 
	C178.275238,193.041962 169.336182,189.978745 161.151245,183.923782 
z"/>
<path fill="#ffffff" opacity="1.000000" stroke="none" 
	d="
M55.779594,210.579102 
	C43.236465,206.187897 36.559383,195.822891 37.715263,182.986938 
	C38.692379,172.136185 47.443626,162.865692 59.207249,161.147217 
	C69.179436,159.690430 77.862640,162.894714 83.532112,171.453964 
	C86.123482,175.366196 88.567207,175.692429 92.546501,174.517288 
	C107.386322,170.134903 122.328178,166.097473 137.161835,161.695007 
	C141.494110,160.409256 143.498764,161.509262 143.611877,166.322159 
	C141.549469,168.185440 138.648071,168.444397 136.021317,169.196579 
	C121.786995,173.272720 107.527290,177.261032 93.258003,181.213440 
	C90.540642,181.966110 88.485161,182.710876 88.273590,186.287216 
	C87.196251,204.497864 74.092674,214.362442 55.779594,210.579102 
z"/>
<path fill="#ffffff" opacity="1.000000" stroke="none" 
	d="
M134.697845,268.893677 
	C137.559753,255.957306 144.700394,249.270157 157.427185,247.578339 
	C160.934830,247.112076 162.521469,245.502258 163.257782,242.062210 
	C166.279282,227.945587 169.513657,213.874054 172.755051,199.805588 
	C173.174133,197.986740 172.852020,195.532257 175.181473,194.778168 
	C176.551437,194.334702 178.244812,194.430450 179.437119,195.533188 
	C180.761139,196.757721 180.091904,198.288055 179.763443,199.742126 
	C176.471466,214.316223 173.287430,228.915756 169.841705,243.453293 
	C169.030350,246.876404 169.532028,248.887161 172.752716,250.804199 
	C182.781326,256.773590 187.259598,268.139496 184.339050,279.104889 
	C181.388535,290.182739 171.832520,298.300629 160.324142,298.119385 
	C144.576370,297.871338 132.673172,286.238464 134.697845,268.893677 
z"/>
<path fill="#ffffff" opacity="1.000000" stroke="none" 
	d="
M117.578125,91.066025 
	C105.415993,95.717964 93.870857,90.709808 90.100876,79.449394 
	C86.650970,69.145035 92.604942,57.570248 103.173363,54.466568 
	C110.636276,52.274899 117.337517,53.904377 122.934120,59.432999 
	C128.475494,64.907066 129.813385,71.766594 127.545677,78.772308 
	C126.076309,83.311729 127.281761,85.715874 130.483353,88.525246 
	C138.365768,95.441994 146.007736,102.633606 153.708511,109.755646 
	C154.903320,110.860664 156.415390,111.751663 156.917603,113.669922 
	C154.780212,117.421799 152.609802,118.269417 148.970352,114.752296 
	C140.951492,107.002953 132.552795,99.647804 124.366852,92.069397 
	C122.389526,90.238808 120.523735,88.782890 117.578125,91.066025 
z"/>
<path fill="#ffffff" opacity="1.000000" stroke="none" 
	d="
M262.474792,96.988968 
	C258.524048,93.327118 255.498367,94.447655 251.873795,97.335243 
	C243.811523,103.758270 235.243225,109.544083 227.140030,115.918671 
	C223.319031,118.924576 221.039627,118.220734 219.067383,114.230385 
	C219.430634,112.273560 221.093521,111.585297 222.376846,110.626205 
	C231.040070,104.151672 239.656281,97.608246 248.474289,91.350052 
	C251.551605,89.166054 252.766083,87.218613 251.796906,83.169769 
	C249.317047,72.809860 255.798553,62.388191 265.615204,59.918652 
	C275.983765,57.310265 286.216125,62.660603 289.486664,72.849838 
	C291.844604,80.195877 290.421600,87.090286 284.897247,92.674515 
	C278.613586,99.026291 271.063660,100.041428 262.474792,96.988968 
z"/>
<path fill="#ffffff" opacity="1.000000" stroke="none" 
	d="
M284.401306,212.174942 
	C273.274445,209.288544 267.612030,203.111130 267.111755,192.685333 
	C266.957062,189.461060 265.702545,188.355637 263.120636,187.456436 
	C252.596146,183.791077 242.088226,180.076431 231.607574,176.287674 
	C227.528244,174.812958 226.922638,172.934067 229.176392,170.207138 
	C231.022827,167.973053 232.929779,169.509079 234.606873,170.092896 
	C244.974304,173.701889 255.281876,177.482803 265.612274,181.198395 
	C267.666321,181.937225 269.379120,182.512619 271.374176,180.357086 
	C279.041901,172.072525 287.929230,170.551758 296.924286,175.583160 
	C304.353119,179.738495 308.173523,189.119690 305.854584,197.511932 
	C303.204285,207.103409 295.587250,212.433136 284.401306,212.174942 
z"/>
</svg>